<svg xmlns="http://www.w3.org/2000/svg" xmlns:xlink="http://www.w3.org/1999/xlink" width="512" zoomAndPan="magnify" viewBox="0 0 384 149.999998" height="200" preserveAspectRatio="xMidYMid meet" version="1.0"><defs><g/><clipPath id="68eb31bb1a"><path d="M 62 24.636719 L 114.484375 24.636719 L 114.484375 74 L 62 74 Z M 62 24.636719 " clip-rule="nonzero"/></clipPath><clipPath id="68fffe8645"><path d="M 40.984375 45 L 114.484375 45 L 114.484375 130.386719 L 40.984375 130.386719 Z M 40.984375 45 " clip-rule="nonzero"/></clipPath><clipPath id="43a3c001d2"><path d="M 95.394531 77.101562 L 40.988281 45.785156 L 40.988281 66.117188 L 99.683594 99.898438 L 77.734375 112.535156 L 40.988281 91.382812 L 40.988281 109.234375 L 77.734375 130.386719 L 114.480469 109.234375 L 114.480469 88.085938 Z M 95.394531 77.101562 " clip-rule="evenodd"/></clipPath><linearGradient x1="88.799965" gradientTransform="matrix(0.00687628, 0, 0, 0.00685511, 40.986537, 24.635134)" y1="3024.586287" x2="9252.087695" gradientUnits="userSpaceOnUse" y2="16409.352192" id="266802c96d"><stop stop-opacity="1" stop-color="rgb(0%, 27.806091%, 56.504822%)" offset="0"/><stop stop-opacity="1" stop-color="rgb(0.0335693%, 27.954102%, 56.652832%)" offset="0.0078125"/><stop stop-opacity="1" stop-color="rgb(0.100708%, 28.250122%, 56.948853%)" offset="0.015625"/><stop stop-opacity="1" stop-color="rgb(0.167847%, 28.546143%, 57.244873%)" offset="0.0234375"/><stop stop-opacity="1" stop-color="rgb(0.234985%, 28.843689%, 57.540894%)" offset="0.03125"/><stop stop-opacity="1" stop-color="rgb(0.302124%, 29.139709%, 57.836914%)" offset="0.0390625"/><stop stop-opacity="1" stop-color="rgb(0.369263%, 29.437256%, 58.131409%)" offset="0.046875"/><stop stop-opacity="1" stop-color="rgb(0.436401%, 29.733276%, 58.427429%)" offset="0.0546875"/><stop stop-opacity="1" stop-color="rgb(0.50354%, 30.030823%, 58.72345%)" offset="0.0625"/><stop stop-opacity="1" stop-color="rgb(0.570679%, 30.326843%, 59.01947%)" offset="0.0703125"/><stop stop-opacity="1" stop-color="rgb(0.637817%, 30.62439%, 59.315491%)" offset="0.078125"/><stop stop-opacity="1" stop-color="rgb(0.704956%, 30.92041%, 59.611511%)" offset="0.0859375"/><stop stop-opacity="1" stop-color="rgb(0.772095%, 31.217957%, 59.907532%)" offset="0.09375"/><stop stop-opacity="1" stop-color="rgb(0.839233%, 31.513977%, 60.202026%)" offset="0.101562"/><stop stop-opacity="1" stop-color="rgb(0.906372%, 31.811523%, 60.498047%)" offset="0.109375"/><stop stop-opacity="1" stop-color="rgb(0.973511%, 32.107544%, 60.794067%)" offset="0.117187"/><stop stop-opacity="1" stop-color="rgb(1.040649%, 32.40509%, 61.090088%)" offset="0.125"/><stop stop-opacity="1" stop-color="rgb(1.107788%, 32.701111%, 61.386108%)" offset="0.132812"/><stop stop-opacity="1" stop-color="rgb(1.174927%, 32.998657%, 61.682129%)" offset="0.140625"/><stop stop-opacity="1" stop-color="rgb(1.242065%, 33.294678%, 61.978149%)" offset="0.148437"/><stop stop-opacity="1" stop-color="rgb(1.309204%, 33.590698%, 62.272644%)" offset="0.15625"/><stop stop-opacity="1" stop-color="rgb(1.376343%, 33.888245%, 62.568665%)" offset="0.164062"/><stop stop-opacity="1" stop-color="rgb(1.443481%, 34.184265%, 62.864685%)" offset="0.171875"/><stop stop-opacity="1" stop-color="rgb(1.51062%, 34.481812%, 63.160706%)" offset="0.179687"/><stop stop-opacity="1" stop-color="rgb(1.577759%, 34.777832%, 63.456726%)" offset="0.1875"/><stop stop-opacity="1" stop-color="rgb(1.644897%, 35.075378%, 63.752747%)" offset="0.195312"/><stop stop-opacity="1" stop-color="rgb(1.712036%, 35.371399%, 64.047241%)" offset="0.203125"/><stop stop-opacity="1" stop-color="rgb(1.779175%, 35.668945%, 64.343262%)" offset="0.210937"/><stop stop-opacity="1" stop-color="rgb(1.846313%, 35.964966%, 64.639282%)" offset="0.21875"/><stop stop-opacity="1" stop-color="rgb(1.913452%, 36.262512%, 64.935303%)" offset="0.226562"/><stop stop-opacity="1" stop-color="rgb(1.980591%, 36.558533%, 65.231323%)" offset="0.234375"/><stop stop-opacity="1" stop-color="rgb(2.047729%, 36.856079%, 65.527344%)" offset="0.242187"/><stop stop-opacity="1" stop-color="rgb(2.114868%, 37.1521%, 65.823364%)" offset="0.25"/><stop stop-opacity="1" stop-color="rgb(2.180481%, 37.449646%, 66.117859%)" offset="0.257812"/><stop stop-opacity="1" stop-color="rgb(2.24762%, 37.745667%, 66.413879%)" offset="0.265625"/><stop stop-opacity="1" stop-color="rgb(2.314758%, 38.041687%, 66.7099%)" offset="0.273437"/><stop stop-opacity="1" stop-color="rgb(2.381897%, 38.339233%, 67.00592%)" offset="0.28125"/><stop stop-opacity="1" stop-color="rgb(2.449036%, 38.635254%, 67.301941%)" offset="0.289062"/><stop stop-opacity="1" stop-color="rgb(2.516174%, 38.9328%, 67.597961%)" offset="0.296875"/><stop stop-opacity="1" stop-color="rgb(2.583313%, 39.228821%, 67.893982%)" offset="0.304688"/><stop stop-opacity="1" stop-color="rgb(2.650452%, 39.526367%, 68.188477%)" offset="0.3125"/><stop stop-opacity="1" stop-color="rgb(2.71759%, 39.822388%, 68.484497%)" offset="0.320312"/><stop stop-opacity="1" stop-color="rgb(2.784729%, 40.119934%, 68.780518%)" offset="0.328125"/><stop stop-opacity="1" stop-color="rgb(2.851868%, 40.415955%, 69.076538%)" offset="0.335938"/><stop stop-opacity="1" stop-color="rgb(2.919006%, 40.713501%, 69.372559%)" offset="0.34375"/><stop stop-opacity="1" stop-color="rgb(2.986145%, 41.009521%, 69.668579%)" offset="0.351562"/><stop stop-opacity="1" stop-color="rgb(3.053284%, 41.307068%, 69.963074%)" offset="0.359375"/><stop stop-opacity="1" stop-color="rgb(3.120422%, 41.603088%, 70.259094%)" offset="0.367187"/><stop stop-opacity="1" stop-color="rgb(3.187561%, 41.900635%, 70.555115%)" offset="0.372212"/><stop stop-opacity="1" stop-color="rgb(3.22113%, 42.048645%, 70.703125%)" offset="0.375"/><stop stop-opacity="1" stop-color="rgb(3.2547%, 42.196655%, 70.851135%)" offset="0.382812"/><stop stop-opacity="1" stop-color="rgb(3.321838%, 42.494202%, 71.147156%)" offset="0.390625"/><stop stop-opacity="1" stop-color="rgb(3.388977%, 42.790222%, 71.443176%)" offset="0.398437"/><stop stop-opacity="1" stop-color="rgb(3.456116%, 43.086243%, 71.739197%)" offset="0.40625"/><stop stop-opacity="1" stop-color="rgb(3.523254%, 43.383789%, 72.033691%)" offset="0.414062"/><stop stop-opacity="1" stop-color="rgb(3.590393%, 43.67981%, 72.329712%)" offset="0.421875"/><stop stop-opacity="1" stop-color="rgb(3.657532%, 43.977356%, 72.625732%)" offset="0.429688"/><stop stop-opacity="1" stop-color="rgb(3.72467%, 44.273376%, 72.921753%)" offset="0.4375"/><stop stop-opacity="1" stop-color="rgb(3.791809%, 44.570923%, 73.217773%)" offset="0.445312"/><stop stop-opacity="1" stop-color="rgb(3.858948%, 44.866943%, 73.513794%)" offset="0.453125"/><stop stop-opacity="1" stop-color="rgb(3.926086%, 45.16449%, 73.808289%)" offset="0.460938"/><stop stop-opacity="1" stop-color="rgb(3.993225%, 45.46051%, 74.104309%)" offset="0.46875"/><stop stop-opacity="1" stop-color="rgb(4.060364%, 45.758057%, 74.40033%)" offset="0.476562"/><stop stop-opacity="1" stop-color="rgb(4.127502%, 46.054077%, 74.69635%)" offset="0.484375"/><stop stop-opacity="1" stop-color="rgb(4.194641%, 46.351624%, 74.992371%)" offset="0.492187"/><stop stop-opacity="1" stop-color="rgb(4.26178%, 46.647644%, 75.288391%)" offset="0.5"/><stop stop-opacity="1" stop-color="rgb(4.328918%, 46.94519%, 75.584412%)" offset="0.507813"/><stop stop-opacity="1" stop-color="rgb(4.396057%, 47.241211%, 75.878906%)" offset="0.515625"/><stop stop-opacity="1" stop-color="rgb(4.463196%, 47.537231%, 76.174927%)" offset="0.523438"/><stop stop-opacity="1" stop-color="rgb(4.530334%, 47.834778%, 76.470947%)" offset="0.53125"/><stop stop-opacity="1" stop-color="rgb(4.597473%, 48.130798%, 76.766968%)" offset="0.539062"/><stop stop-opacity="1" stop-color="rgb(4.663086%, 48.428345%, 77.062988%)" offset="0.546875"/><stop stop-opacity="1" stop-color="rgb(4.730225%, 48.724365%, 77.359009%)" offset="0.554688"/><stop stop-opacity="1" stop-color="rgb(4.797363%, 49.021912%, 77.655029%)" offset="0.5625"/><stop stop-opacity="1" stop-color="rgb(4.864502%, 49.317932%, 77.949524%)" offset="0.570312"/><stop stop-opacity="1" stop-color="rgb(4.931641%, 49.615479%, 78.245544%)" offset="0.578125"/><stop stop-opacity="1" stop-color="rgb(4.998779%, 49.911499%, 78.541565%)" offset="0.585938"/><stop stop-opacity="1" stop-color="rgb(5.065918%, 50.209045%, 78.837585%)" offset="0.59375"/><stop stop-opacity="1" stop-color="rgb(5.133057%, 50.505066%, 79.133606%)" offset="0.601562"/><stop stop-opacity="1" stop-color="rgb(5.200195%, 50.802612%, 79.429626%)" offset="0.609375"/><stop stop-opacity="1" stop-color="rgb(5.267334%, 51.098633%, 79.724121%)" offset="0.617188"/><stop stop-opacity="1" stop-color="rgb(5.334473%, 51.396179%, 80.020142%)" offset="0.625"/><stop stop-opacity="1" stop-color="rgb(5.401611%, 51.6922%, 80.316162%)" offset="0.627788"/><stop stop-opacity="1" stop-color="rgb(5.435181%, 51.841736%, 80.464172%)" offset="0.632812"/><stop stop-opacity="1" stop-color="rgb(5.46875%, 51.989746%, 80.612183%)" offset="0.640625"/><stop stop-opacity="1" stop-color="rgb(5.535889%, 52.285767%, 80.908203%)" offset="0.648438"/><stop stop-opacity="1" stop-color="rgb(5.603027%, 52.581787%, 81.204224%)" offset="0.65625"/><stop stop-opacity="1" stop-color="rgb(5.670166%, 52.879333%, 81.500244%)" offset="0.664063"/><stop stop-opacity="1" stop-color="rgb(5.737305%, 53.175354%, 81.794739%)" offset="0.671875"/><stop stop-opacity="1" stop-color="rgb(5.804443%, 53.4729%, 82.090759%)" offset="0.679688"/><stop stop-opacity="1" stop-color="rgb(5.871582%, 53.768921%, 82.38678%)" offset="0.6875"/><stop stop-opacity="1" stop-color="rgb(5.938721%, 54.066467%, 82.6828%)" offset="0.695313"/><stop stop-opacity="1" stop-color="rgb(6.005859%, 54.362488%, 82.978821%)" offset="0.703125"/><stop stop-opacity="1" stop-color="rgb(6.072998%, 54.660034%, 83.274841%)" offset="0.710938"/><stop stop-opacity="1" stop-color="rgb(6.140137%, 54.956055%, 83.570862%)" offset="0.71875"/><stop stop-opacity="1" stop-color="rgb(6.207275%, 55.253601%, 83.865356%)" offset="0.726562"/><stop stop-opacity="1" stop-color="rgb(6.274414%, 55.549622%, 84.161377%)" offset="0.734375"/><stop stop-opacity="1" stop-color="rgb(6.341553%, 55.847168%, 84.457397%)" offset="0.742188"/><stop stop-opacity="1" stop-color="rgb(6.408691%, 56.143188%, 84.753418%)" offset="0.75"/><stop stop-opacity="1" stop-color="rgb(6.47583%, 56.440735%, 85.049438%)" offset="0.757812"/><stop stop-opacity="1" stop-color="rgb(6.542969%, 56.736755%, 85.345459%)" offset="0.765625"/><stop stop-opacity="1" stop-color="rgb(6.610107%, 57.032776%, 85.639954%)" offset="0.773438"/><stop stop-opacity="1" stop-color="rgb(6.677246%, 57.330322%, 85.935974%)" offset="0.78125"/><stop stop-opacity="1" stop-color="rgb(6.744385%, 57.626343%, 86.231995%)" offset="0.789062"/><stop stop-opacity="1" stop-color="rgb(6.811523%, 57.923889%, 86.528015%)" offset="0.796875"/><stop stop-opacity="1" stop-color="rgb(6.878662%, 58.21991%, 86.824036%)" offset="0.804688"/><stop stop-opacity="1" stop-color="rgb(6.945801%, 58.517456%, 87.120056%)" offset="0.8125"/><stop stop-opacity="1" stop-color="rgb(7.012939%, 58.813477%, 87.416077%)" offset="0.820313"/><stop stop-opacity="1" stop-color="rgb(7.072449%, 59.080505%, 87.68158%)" offset="0.828125"/><stop stop-opacity="1" stop-color="rgb(7.099915%, 59.199524%, 87.799072%)" offset="0.84375"/><stop stop-opacity="1" stop-color="rgb(7.099915%, 59.199524%, 87.799072%)" offset="0.875"/><stop stop-opacity="1" stop-color="rgb(7.099915%, 59.199524%, 87.799072%)" offset="1"/></linearGradient><clipPath id="2d769306c1"><path d="M 94 45 L 114.484375 45 L 114.484375 55 L 94 55 Z M 94 45 " clip-rule="nonzero"/></clipPath></defs><g clip-path="url(#68eb31bb1a)"><path fill="#0067b0" d="M 84.636719 62.960938 L 102.300781 73.125 L 114.480469 66.117188 L 114.480469 45.785156 L 77.734375 24.636719 L 62.492188 33.40625 L 99.238281 54.558594 Z M 84.636719 62.960938 " fill-opacity="1" fill-rule="evenodd"/></g><g clip-path="url(#68fffe8645)"><g clip-path="url(#43a3c001d2)"><path fill="url(#266802c96d)" d="M 40.988281 45.785156 L 40.988281 130.386719 L 114.480469 130.386719 L 114.480469 45.785156 Z M 40.988281 45.785156 " fill-rule="nonzero"/></g></g><g clip-path="url(#2d769306c1)"><path fill="#003780" d="M 99.238281 54.558594 L 114.480469 45.785156 L 94.566406 51.867188 Z M 99.238281 54.558594 " fill-opacity="1" fill-rule="evenodd"/></g><g fill="#ff00ff" fill-opacity="1"><g transform="translate(113.963045, 112.222767)"><g><path d="M 28 -7.109375 L 11.796875 -7.109375 L 11.796875 -13.828125 L 25.421875 -13.828125 C 26.578125 -13.828125 26.890625 -14.390625 26.890625 -15.296875 L 26.890625 -19.265625 C 26.890625 -20.171875 26.578125 -20.734375 25.421875 -20.734375 L 11.796875 -20.734375 L 11.796875 -26.28125 L 27.140625 -26.28125 C 28.3125 -26.28125 28.609375 -26.84375 28.609375 -27.75 L 28.609375 -31.96875 C 28.609375 -32.890625 28.3125 -33.4375 27.140625 -33.4375 L 5.234375 -33.4375 C 4.0625 -33.4375 3.765625 -32.890625 3.765625 -31.96875 L 3.765625 -1.46875 C 3.765625 -0.5625 4.0625 0 5.234375 0 L 28 0 C 29.171875 0 29.484375 -0.5625 29.484375 -1.46875 L 29.484375 -5.640625 C 29.484375 -6.5625 29.171875 -7.109375 28 -7.109375 Z M 28 -7.109375 "/></g></g></g><g fill="#ff00ff" fill-opacity="1"><g transform="translate(145.829872, 112.222767)"><g><path d="M 26.375 -33.4375 L 2.796875 -33.4375 C 1.625 -33.4375 1.328125 -32.890625 1.328125 -31.96875 L 1.328125 -27.75 C 1.328125 -26.84375 1.625 -26.28125 2.796875 -26.28125 L 10.625 -26.28125 L 10.625 -1.46875 C 10.625 -0.3125 11.1875 0 12.09375 0 L 17.125 0 C 18.046875 0 18.609375 -0.3125 18.609375 -1.46875 L 18.609375 -26.28125 L 26.375 -26.28125 C 27.546875 -26.28125 27.859375 -26.84375 27.859375 -27.75 L 27.859375 -31.96875 C 27.859375 -32.890625 27.546875 -33.4375 26.375 -33.4375 Z M 26.375 -33.4375 "/></g></g></g><g fill="#ff00ff" fill-opacity="1"><g transform="translate(175.003012, 112.222767)"><g><path d="M 32.53125 -1.421875 L 21.296875 -31.875 C 20.84375 -32.9375 20.328125 -33.4375 19.21875 -33.4375 L 14.328125 -33.4375 C 13.21875 -33.4375 12.65625 -32.9375 12.25 -31.875 L 0.96875 -1.421875 C 0.71875 -0.8125 0.71875 0 1.828125 0 L 7.171875 0 C 8.28125 0 8.6875 -0.3125 9.09375 -1.53125 L 10.515625 -5.546875 L 22.96875 -5.546875 L 24.390625 -1.53125 C 24.796875 -0.3125 25.203125 0 26.328125 0 L 31.671875 0 C 32.78125 0 32.78125 -0.8125 32.53125 -1.421875 Z M 16.765625 -23.890625 L 20.578125 -12.65625 L 12.96875 -12.65625 Z M 16.765625 -23.890625 "/></g></g></g><g fill="#ff00ff" fill-opacity="1"><g transform="translate(208.292912, 112.222767)"><g/></g></g><g fill="#ff00ff" fill-opacity="1"><g transform="translate(222.066287, 112.222767)"><g><path d="M 27.59375 -17.328125 C 28.0625 -17.53125 31.3125 -19.15625 31.3125 -24.296875 C 31.3125 -29.078125 27.75 -33.5 19.46875 -33.5 L 5.234375 -33.5 C 4.0625 -33.5 3.765625 -32.9375 3.765625 -32.015625 L 3.765625 -1.46875 C 3.765625 -0.5625 4.0625 0 5.234375 0 L 20.171875 0 C 27.25 0 32.28125 -3.296875 32.28125 -9.765625 C 32.28125 -15.25 28 -17.1875 27.59375 -17.328125 Z M 20.28125 -7.21875 L 11.734375 -7.21875 L 11.734375 -26.328125 L 19.46875 -26.328125 C 22.109375 -26.328125 23.6875 -25.765625 23.6875 -23.484375 C 23.6875 -21.5 22.421875 -20.4375 19.46875 -20.4375 L 18.8125 -20.4375 C 17.640625 -20.4375 17.328125 -19.875 17.328125 -18.953125 L 17.328125 -15.09375 C 17.328125 -14.1875 17.640625 -13.625 18.8125 -13.625 L 19.96875 -13.625 C 22.421875 -13.625 24.1875 -12.90625 24.1875 -10.515625 C 24.1875 -8.234375 22.765625 -7.21875 20.28125 -7.21875 Z M 20.28125 -7.21875 "/></g></g></g><g fill="#ff00ff" fill-opacity="1"><g transform="translate(256.982564, 112.222767)"><g><path d="M 30.046875 -10.71875 L 30.046875 -22.71875 C 30.046875 -30.75 22.421875 -34.203125 16.359375 -34.203125 C 10.3125 -34.203125 2.796875 -30.75 2.796875 -22.71875 L 2.796875 -10.71875 C 2.796875 -2.6875 10.3125 0.765625 16.359375 0.765625 C 22.421875 0.765625 30.046875 -2.6875 30.046875 -10.71875 Z M 22.0625 -22.015625 L 22.0625 -11.4375 C 22.0625 -8.1875 19.71875 -6.296875 16.359375 -6.296875 C 13.0625 -6.296875 10.71875 -8.1875 10.71875 -11.4375 L 10.71875 -22.015625 C 10.71875 -25.265625 13.0625 -27.140625 16.359375 -27.140625 C 19.71875 -27.140625 22.0625 -25.265625 22.0625 -22.015625 Z M 22.0625 -22.015625 "/></g></g></g><g fill="#ff00ff" fill-opacity="1"><g transform="translate(289.76422, 112.222767)"><g><path d="M 26.375 -33.4375 L 2.796875 -33.4375 C 1.625 -33.4375 1.328125 -32.890625 1.328125 -31.96875 L 1.328125 -27.75 C 1.328125 -26.84375 1.625 -26.28125 2.796875 -26.28125 L 10.625 -26.28125 L 10.625 -1.46875 C 10.625 -0.3125 11.1875 0 12.09375 0 L 17.125 0 C 18.046875 0 18.609375 -0.3125 18.609375 -1.46875 L 18.609375 -26.28125 L 26.375 -26.28125 C 27.546875 -26.28125 27.859375 -26.84375 27.859375 -27.75 L 27.859375 -31.96875 C 27.859375 -32.890625 27.546875 -33.4375 26.375 -33.4375 Z M 26.375 -33.4375 "/></g></g></g><g fill="#00ffff" fill-opacity="1"><g transform="translate(111.923748, 114.741082)"><g><path d="M 28 -7.109375 L 11.796875 -7.109375 L 11.796875 -13.828125 L 25.421875 -13.828125 C 26.578125 -13.828125 26.890625 -14.390625 26.890625 -15.296875 L 26.890625 -19.265625 C 26.890625 -20.171875 26.578125 -20.734375 25.421875 -20.734375 L 11.796875 -20.734375 L 11.796875 -26.28125 L 27.140625 -26.28125 C 28.3125 -26.28125 28.609375 -26.84375 28.609375 -27.75 L 28.609375 -31.96875 C 28.609375 -32.890625 28.3125 -33.4375 27.140625 -33.4375 L 5.234375 -33.4375 C 4.0625 -33.4375 3.765625 -32.890625 3.765625 -31.96875 L 3.765625 -1.46875 C 3.765625 -0.5625 4.0625 0 5.234375 0 L 28 0 C 29.171875 0 29.484375 -0.5625 29.484375 -1.46875 L 29.484375 -5.640625 C 29.484375 -6.5625 29.171875 -7.109375 28 -7.109375 Z M 28 -7.109375 "/></g></g></g><g fill="#00ffff" fill-opacity="1"><g transform="translate(143.790575, 114.741082)"><g><path d="M 26.375 -33.4375 L 2.796875 -33.4375 C 1.625 -33.4375 1.328125 -32.890625 1.328125 -31.96875 L 1.328125 -27.75 C 1.328125 -26.84375 1.625 -26.28125 2.796875 -26.28125 L 10.625 -26.28125 L 10.625 -1.46875 C 10.625 -0.3125 11.1875 0 12.09375 0 L 17.125 0 C 18.046875 0 18.609375 -0.3125 18.609375 -1.46875 L 18.609375 -26.28125 L 26.375 -26.28125 C 27.546875 -26.28125 27.859375 -26.84375 27.859375 -27.75 L 27.859375 -31.96875 C 27.859375 -32.890625 27.546875 -33.4375 26.375 -33.4375 Z M 26.375 -33.4375 "/></g></g></g><g fill="#00ffff" fill-opacity="1"><g transform="translate(172.963715, 114.741082)"><g><path d="M 32.53125 -1.421875 L 21.296875 -31.875 C 20.84375 -32.9375 20.328125 -33.4375 19.21875 -33.4375 L 14.328125 -33.4375 C 13.21875 -33.4375 12.65625 -32.9375 12.25 -31.875 L 0.96875 -1.421875 C 0.71875 -0.8125 0.71875 0 1.828125 0 L 7.171875 0 C 8.28125 0 8.6875 -0.3125 9.09375 -1.53125 L 10.515625 -5.546875 L 22.96875 -5.546875 L 24.390625 -1.53125 C 24.796875 -0.3125 25.203125 0 26.328125 0 L 31.671875 0 C 32.78125 0 32.78125 -0.8125 32.53125 -1.421875 Z M 16.765625 -23.890625 L 20.578125 -12.65625 L 12.96875 -12.65625 Z M 16.765625 -23.890625 "/></g></g></g><g fill="#00ffff" fill-opacity="1"><g transform="translate(206.253615, 114.741082)"><g/></g></g><g fill="#00ffff" fill-opacity="1"><g transform="translate(220.026991, 114.741082)"><g><path d="M 27.59375 -17.328125 C 28.0625 -17.53125 31.3125 -19.15625 31.3125 -24.296875 C 31.3125 -29.078125 27.75 -33.5 19.46875 -33.5 L 5.234375 -33.5 C 4.0625 -33.5 3.765625 -32.9375 3.765625 -32.015625 L 3.765625 -1.46875 C 3.765625 -0.5625 4.0625 0 5.234375 0 L 20.171875 0 C 27.25 0 32.28125 -3.296875 32.28125 -9.765625 C 32.28125 -15.25 28 -17.1875 27.59375 -17.328125 Z M 20.28125 -7.21875 L 11.734375 -7.21875 L 11.734375 -26.328125 L 19.46875 -26.328125 C 22.109375 -26.328125 23.6875 -25.765625 23.6875 -23.484375 C 23.6875 -21.5 22.421875 -20.4375 19.46875 -20.4375 L 18.8125 -20.4375 C 17.640625 -20.4375 17.328125 -19.875 17.328125 -18.953125 L 17.328125 -15.09375 C 17.328125 -14.1875 17.640625 -13.625 18.8125 -13.625 L 19.96875 -13.625 C 22.421875 -13.625 24.1875 -12.90625 24.1875 -10.515625 C 24.1875 -8.234375 22.765625 -7.21875 20.28125 -7.21875 Z M 20.28125 -7.21875 "/></g></g></g><g fill="#00ffff" fill-opacity="1"><g transform="translate(254.943267, 114.741082)"><g><path d="M 30.046875 -10.71875 L 30.046875 -22.71875 C 30.046875 -30.75 22.421875 -34.203125 16.359375 -34.203125 C 10.3125 -34.203125 2.796875 -30.75 2.796875 -22.71875 L 2.796875 -10.71875 C 2.796875 -2.6875 10.3125 0.765625 16.359375 0.765625 C 22.421875 0.765625 30.046875 -2.6875 30.046875 -10.71875 Z M 22.0625 -22.015625 L 22.0625 -11.4375 C 22.0625 -8.1875 19.71875 -6.296875 16.359375 -6.296875 C 13.0625 -6.296875 10.71875 -8.1875 10.71875 -11.4375 L 10.71875 -22.015625 C 10.71875 -25.265625 13.0625 -27.140625 16.359375 -27.140625 C 19.71875 -27.140625 22.0625 -25.265625 22.0625 -22.015625 Z M 22.0625 -22.015625 "/></g></g></g><g fill="#00ffff" fill-opacity="1"><g transform="translate(287.724924, 114.741082)"><g><path d="M 26.375 -33.4375 L 2.796875 -33.4375 C 1.625 -33.4375 1.328125 -32.890625 1.328125 -31.96875 L 1.328125 -27.75 C 1.328125 -26.84375 1.625 -26.28125 2.796875 -26.28125 L 10.625 -26.28125 L 10.625 -1.46875 C 10.625 -0.3125 11.1875 0 12.09375 0 L 17.125 0 C 18.046875 0 18.609375 -0.3125 18.609375 -1.46875 L 18.609375 -26.28125 L 26.375 -26.28125 C 27.546875 -26.28125 27.859375 -26.84375 27.859375 -27.75 L 27.859375 -31.96875 C 27.859375 -32.890625 27.546875 -33.4375 26.375 -33.4375 Z M 26.375 -33.4375 "/></g></g></g><g fill="#ffffff" fill-opacity="1"><g transform="translate(112.943398, 113.481924)"><g><path d="M 28 -7.109375 L 11.796875 -7.109375 L 11.796875 -13.828125 L 25.421875 -13.828125 C 26.578125 -13.828125 26.890625 -14.390625 26.890625 -15.296875 L 26.890625 -19.265625 C 26.890625 -20.171875 26.578125 -20.734375 25.421875 -20.734375 L 11.796875 -20.734375 L 11.796875 -26.28125 L 27.140625 -26.28125 C 28.3125 -26.28125 28.609375 -26.84375 28.609375 -27.75 L 28.609375 -31.96875 C 28.609375 -32.890625 28.3125 -33.4375 27.140625 -33.4375 L 5.234375 -33.4375 C 4.0625 -33.4375 3.765625 -32.890625 3.765625 -31.96875 L 3.765625 -1.46875 C 3.765625 -0.5625 4.0625 0 5.234375 0 L 28 0 C 29.171875 0 29.484375 -0.5625 29.484375 -1.46875 L 29.484375 -5.640625 C 29.484375 -6.5625 29.171875 -7.109375 28 -7.109375 Z M 28 -7.109375 "/></g></g></g><g fill="#ffffff" fill-opacity="1"><g transform="translate(144.810225, 113.481924)"><g><path d="M 26.375 -33.4375 L 2.796875 -33.4375 C 1.625 -33.4375 1.328125 -32.890625 1.328125 -31.96875 L 1.328125 -27.75 C 1.328125 -26.84375 1.625 -26.28125 2.796875 -26.28125 L 10.625 -26.28125 L 10.625 -1.46875 C 10.625 -0.3125 11.1875 0 12.09375 0 L 17.125 0 C 18.046875 0 18.609375 -0.3125 18.609375 -1.46875 L 18.609375 -26.28125 L 26.375 -26.28125 C 27.546875 -26.28125 27.859375 -26.84375 27.859375 -27.75 L 27.859375 -31.96875 C 27.859375 -32.890625 27.546875 -33.4375 26.375 -33.4375 Z M 26.375 -33.4375 "/></g></g></g><g fill="#ffffff" fill-opacity="1"><g transform="translate(173.983365, 113.481924)"><g><path d="M 32.53125 -1.421875 L 21.296875 -31.875 C 20.84375 -32.9375 20.328125 -33.4375 19.21875 -33.4375 L 14.328125 -33.4375 C 13.21875 -33.4375 12.65625 -32.9375 12.25 -31.875 L 0.96875 -1.421875 C 0.71875 -0.8125 0.71875 0 1.828125 0 L 7.171875 0 C 8.28125 0 8.6875 -0.3125 9.09375 -1.53125 L 10.515625 -5.546875 L 22.96875 -5.546875 L 24.390625 -1.53125 C 24.796875 -0.3125 25.203125 0 26.328125 0 L 31.671875 0 C 32.78125 0 32.78125 -0.8125 32.53125 -1.421875 Z M 16.765625 -23.890625 L 20.578125 -12.65625 L 12.96875 -12.65625 Z M 16.765625 -23.890625 "/></g></g></g><g fill="#ffffff" fill-opacity="1"><g transform="translate(207.273265, 113.481924)"><g/></g></g><g fill="#ffffff" fill-opacity="1"><g transform="translate(221.04664, 113.481924)"><g><path d="M 27.59375 -17.328125 C 28.0625 -17.53125 31.3125 -19.15625 31.3125 -24.296875 C 31.3125 -29.078125 27.75 -33.5 19.46875 -33.5 L 5.234375 -33.5 C 4.0625 -33.5 3.765625 -32.9375 3.765625 -32.015625 L 3.765625 -1.46875 C 3.765625 -0.5625 4.0625 0 5.234375 0 L 20.171875 0 C 27.25 0 32.28125 -3.296875 32.28125 -9.765625 C 32.28125 -15.25 28 -17.1875 27.59375 -17.328125 Z M 20.28125 -7.21875 L 11.734375 -7.21875 L 11.734375 -26.328125 L 19.46875 -26.328125 C 22.109375 -26.328125 23.6875 -25.765625 23.6875 -23.484375 C 23.6875 -21.5 22.421875 -20.4375 19.46875 -20.4375 L 18.8125 -20.4375 C 17.640625 -20.4375 17.328125 -19.875 17.328125 -18.953125 L 17.328125 -15.09375 C 17.328125 -14.1875 17.640625 -13.625 18.8125 -13.625 L 19.96875 -13.625 C 22.421875 -13.625 24.1875 -12.90625 24.1875 -10.515625 C 24.1875 -8.234375 22.765625 -7.21875 20.28125 -7.21875 Z M 20.28125 -7.21875 "/></g></g></g><g fill="#ffffff" fill-opacity="1"><g transform="translate(255.962917, 113.481924)"><g><path d="M 30.046875 -10.71875 L 30.046875 -22.71875 C 30.046875 -30.75 22.421875 -34.203125 16.359375 -34.203125 C 10.3125 -34.203125 2.796875 -30.75 2.796875 -22.71875 L 2.796875 -10.71875 C 2.796875 -2.6875 10.3125 0.765625 16.359375 0.765625 C 22.421875 0.765625 30.046875 -2.6875 30.046875 -10.71875 Z M 22.0625 -22.015625 L 22.0625 -11.4375 C 22.0625 -8.1875 19.71875 -6.296875 16.359375 -6.296875 C 13.0625 -6.296875 10.71875 -8.1875 10.71875 -11.4375 L 10.71875 -22.015625 C 10.71875 -25.265625 13.0625 -27.140625 16.359375 -27.140625 C 19.71875 -27.140625 22.0625 -25.265625 22.0625 -22.015625 Z M 22.0625 -22.015625 "/></g></g></g><g fill="#ffffff" fill-opacity="1"><g transform="translate(288.744573, 113.481924)"><g><path d="M 26.375 -33.4375 L 2.796875 -33.4375 C 1.625 -33.4375 1.328125 -32.890625 1.328125 -31.96875 L 1.328125 -27.75 C 1.328125 -26.84375 1.625 -26.28125 2.796875 -26.28125 L 10.625 -26.28125 L 10.625 -1.46875 C 10.625 -0.3125 11.1875 0 12.09375 0 L 17.125 0 C 18.046875 0 18.609375 -0.3125 18.609375 -1.46875 L 18.609375 -26.28125 L 26.375 -26.28125 C 27.546875 -26.28125 27.859375 -26.84375 27.859375 -27.75 L 27.859375 -31.96875 C 27.859375 -32.890625 27.546875 -33.4375 26.375 -33.4375 Z M 26.375 -33.4375 "/></g></g></g><g fill="#ff00ff" fill-opacity="1"><g transform="translate(154.209955, 72.757447)"><g><path d="M 14.921875 -18.421875 L 2.890625 -18.421875 C 2.234375 -18.421875 2.078125 -18.109375 2.078125 -17.609375 L 2.078125 -0.8125 C 2.078125 -0.3125 2.234375 0 2.890625 0 L 5.65625 0 C 6.296875 0 6.46875 -0.109375 6.46875 -0.84375 L 6.46875 -7.390625 L 13.75 -7.390625 C 14.390625 -7.390625 14.5625 -7.703125 14.5625 -8.203125 L 14.5625 -10.421875 C 14.5625 -10.921875 14.390625 -11.234375 13.75 -11.234375 L 6.46875 -11.234375 L 6.46875 -14.5 L 14.921875 -14.5 C 15.5625 -14.5 15.734375 -14.8125 15.734375 -15.3125 L 15.734375 -17.609375 C 15.734375 -18.109375 15.5625 -18.421875 14.921875 -18.421875 Z M 14.921875 -18.421875 "/></g></g></g><g fill="#ff00ff" fill-opacity="1"><g transform="translate(171.063656, 72.757447)"><g><path d="M 15.84375 -18.421875 L 13.078125 -18.421875 C 12.578125 -18.421875 12.265625 -18.25 12.265625 -17.609375 L 12.265625 -6.25 C 12.265625 -4.484375 11.09375 -3.46875 9.234375 -3.46875 C 7.390625 -3.46875 6.25 -4.484375 6.25 -6.25 L 6.25 -17.609375 C 6.25 -18.25 5.9375 -18.421875 5.4375 -18.421875 L 2.65625 -18.421875 C 2.15625 -18.421875 1.84375 -18.25 1.84375 -17.609375 L 1.84375 -5.625 C 1.84375 -1.234375 5.90625 0.421875 9.234375 0.421875 C 12.578125 0.421875 16.65625 -1.234375 16.65625 -5.625 L 16.65625 -17.609375 C 16.65625 -18.25 16.359375 -18.421875 15.84375 -18.421875 Z M 15.84375 -18.421875 "/></g></g></g><g fill="#ff00ff" fill-opacity="1"><g transform="translate(189.569129, 72.757447)"><g><path d="M 14.53125 -18.421875 L 1.546875 -18.421875 C 0.890625 -18.421875 0.734375 -18.109375 0.734375 -17.609375 L 0.734375 -15.28125 C 0.734375 -14.78125 0.890625 -14.46875 1.546875 -14.46875 L 5.859375 -14.46875 L 5.859375 -0.8125 C 5.859375 -0.171875 6.15625 0 6.65625 0 L 9.4375 0 C 9.9375 0 10.25 -0.171875 10.25 -0.8125 L 10.25 -14.46875 L 14.53125 -14.46875 C 15.171875 -14.46875 15.34375 -14.78125 15.34375 -15.28125 L 15.34375 -17.609375 C 15.34375 -18.109375 15.171875 -18.421875 14.53125 -18.421875 Z M 14.53125 -18.421875 "/></g></g></g><g fill="#ff00ff" fill-opacity="1"><g transform="translate(205.638933, 72.757447)"><g><path d="M 15.84375 -18.421875 L 13.078125 -18.421875 C 12.578125 -18.421875 12.265625 -18.25 12.265625 -17.609375 L 12.265625 -6.25 C 12.265625 -4.484375 11.09375 -3.46875 9.234375 -3.46875 C 7.390625 -3.46875 6.25 -4.484375 6.25 -6.25 L 6.25 -17.609375 C 6.25 -18.25 5.9375 -18.421875 5.4375 -18.421875 L 2.65625 -18.421875 C 2.15625 -18.421875 1.84375 -18.25 1.84375 -17.609375 L 1.84375 -5.625 C 1.84375 -1.234375 5.90625 0.421875 9.234375 0.421875 C 12.578125 0.421875 16.65625 -1.234375 16.65625 -5.625 L 16.65625 -17.609375 C 16.65625 -18.25 16.359375 -18.421875 15.84375 -18.421875 Z M 15.84375 -18.421875 "/></g></g></g><g fill="#ff00ff" fill-opacity="1"><g transform="translate(224.144406, 72.757447)"><g><path d="M 17.171875 -0.890625 L 13.21875 -6.640625 C 14.953125 -7.21875 17.109375 -9.265625 17.109375 -12.203125 C 17.109375 -14 16.515625 -15.59375 15.484375 -16.609375 C 14.3125 -17.78125 12.96875 -18.390625 9.90625 -18.390625 L 2.859375 -18.390625 C 2.21875 -18.390625 2.078125 -18.09375 2.078125 -17.578125 L 2.078125 -0.8125 C 2.078125 -0.171875 2.359375 0 2.859375 0 L 5.625 0 C 6.125 0 6.4375 -0.171875 6.4375 -0.8125 L 6.4375 -14.46875 L 10.15625 -14.46875 C 11.625 -14.46875 12.734375 -13.546875 12.734375 -12.09375 C 12.734375 -10.78125 11.453125 -9.828125 10.078125 -9.828125 L 9.515625 -9.828125 C 8.875 -9.828125 8.703125 -9.515625 8.703125 -9.015625 L 8.703125 -6.78125 C 8.703125 -5.984375 8.765625 -5.6875 9.015625 -5.34375 L 12.046875 -0.84375 C 12.4375 -0.25 12.765625 0 13.4375 0 L 16.75 0 C 17.28125 0 17.421875 -0.5 17.171875 -0.890625 Z M 17.171875 -0.890625 "/></g></g></g><g fill="#ff00ff" fill-opacity="1"><g transform="translate(242.789863, 72.757447)"><g><path d="M 16.546875 -5.90625 L 16.546875 -12.515625 C 16.546875 -16.9375 12.34375 -18.84375 9.015625 -18.84375 C 5.6875 -18.84375 1.546875 -16.9375 1.546875 -12.515625 L 1.546875 -5.90625 C 1.546875 -1.484375 5.6875 0.421875 9.015625 0.421875 C 12.34375 0.421875 16.546875 -1.484375 16.546875 -5.90625 Z M 12.15625 -12.125 L 12.15625 -6.296875 C 12.15625 -4.515625 10.859375 -3.46875 9.015625 -3.46875 C 7.203125 -3.46875 5.90625 -4.515625 5.90625 -6.296875 L 5.90625 -12.125 C 5.90625 -13.921875 7.203125 -14.953125 9.015625 -14.953125 C 10.859375 -14.953125 12.15625 -13.921875 12.15625 -12.125 Z M 12.15625 -12.125 "/></g></g></g><g fill="#ff00ff" fill-opacity="1"><g transform="translate(260.847402, 72.757447)"><g><path d="M 10.75 -10.703125 C 9.625 -11.140625 5.515625 -11.765625 5.515625 -13.46875 C 5.515625 -14.734375 7.0625 -15.09375 7.984375 -15.09375 C 8.8125 -15.09375 9.828125 -14.84375 10.359375 -14.34375 C 10.703125 -14 10.84375 -13.78125 10.953125 -13.5 C 11.09375 -13.125 11.171875 -12.734375 11.703125 -12.734375 L 14.453125 -12.734375 C 15.09375 -12.734375 15.265625 -12.859375 15.265625 -13.53125 C 15.265625 -17.21875 11.375 -18.84375 7.8125 -18.84375 C 4.3125 -18.703125 1.015625 -16.90625 1.015625 -13.265625 C 1.015625 -9.71875 3.609375 -8.59375 6.4375 -7.703125 C 8.8125 -6.9375 11.3125 -6.921875 11.3125 -5.34375 C 11.3125 -3.78125 10.078125 -3.4375 8.5625 -3.4375 C 7.53125 -3.4375 6.390625 -3.703125 5.828125 -4.375 C 5.453125 -4.78125 5.3125 -5.15625 5.296875 -5.515625 C 5.234375 -6.21875 4.921875 -6.296875 4.28125 -6.296875 L 1.5625 -6.296875 C 0.921875 -6.296875 0.75 -6.15625 0.75 -5.515625 C 0.75 -1.59375 4.78125 0.421875 8.28125 0.421875 C 12.59375 0.421875 15.734375 -1.484375 15.734375 -5.453125 C 15.734375 -9.265625 12.765625 -10.078125 10.75 -10.703125 Z M 10.75 -10.703125 "/></g></g></g><g fill="#00ffff" fill-opacity="1"><g transform="translate(153.086625, 74.144654)"><g><path d="M 14.921875 -18.421875 L 2.890625 -18.421875 C 2.234375 -18.421875 2.078125 -18.109375 2.078125 -17.609375 L 2.078125 -0.8125 C 2.078125 -0.3125 2.234375 0 2.890625 0 L 5.65625 0 C 6.296875 0 6.46875 -0.109375 6.46875 -0.84375 L 6.46875 -7.390625 L 13.75 -7.390625 C 14.390625 -7.390625 14.5625 -7.703125 14.5625 -8.203125 L 14.5625 -10.421875 C 14.5625 -10.921875 14.390625 -11.234375 13.75 -11.234375 L 6.46875 -11.234375 L 6.46875 -14.5 L 14.921875 -14.5 C 15.5625 -14.5 15.734375 -14.8125 15.734375 -15.3125 L 15.734375 -17.609375 C 15.734375 -18.109375 15.5625 -18.421875 14.921875 -18.421875 Z M 14.921875 -18.421875 "/></g></g></g><g fill="#00ffff" fill-opacity="1"><g transform="translate(169.940326, 74.144654)"><g><path d="M 15.84375 -18.421875 L 13.078125 -18.421875 C 12.578125 -18.421875 12.265625 -18.25 12.265625 -17.609375 L 12.265625 -6.25 C 12.265625 -4.484375 11.09375 -3.46875 9.234375 -3.46875 C 7.390625 -3.46875 6.25 -4.484375 6.25 -6.25 L 6.25 -17.609375 C 6.25 -18.25 5.9375 -18.421875 5.4375 -18.421875 L 2.65625 -18.421875 C 2.15625 -18.421875 1.84375 -18.25 1.84375 -17.609375 L 1.84375 -5.625 C 1.84375 -1.234375 5.90625 0.421875 9.234375 0.421875 C 12.578125 0.421875 16.65625 -1.234375 16.65625 -5.625 L 16.65625 -17.609375 C 16.65625 -18.25 16.359375 -18.421875 15.84375 -18.421875 Z M 15.84375 -18.421875 "/></g></g></g><g fill="#00ffff" fill-opacity="1"><g transform="translate(188.445799, 74.144654)"><g><path d="M 14.53125 -18.421875 L 1.546875 -18.421875 C 0.890625 -18.421875 0.734375 -18.109375 0.734375 -17.609375 L 0.734375 -15.28125 C 0.734375 -14.78125 0.890625 -14.46875 1.546875 -14.46875 L 5.859375 -14.46875 L 5.859375 -0.8125 C 5.859375 -0.171875 6.15625 0 6.65625 0 L 9.4375 0 C 9.9375 0 10.25 -0.171875 10.25 -0.8125 L 10.25 -14.46875 L 14.53125 -14.46875 C 15.171875 -14.46875 15.34375 -14.78125 15.34375 -15.28125 L 15.34375 -17.609375 C 15.34375 -18.109375 15.171875 -18.421875 14.53125 -18.421875 Z M 14.53125 -18.421875 "/></g></g></g><g fill="#00ffff" fill-opacity="1"><g transform="translate(204.515603, 74.144654)"><g><path d="M 15.84375 -18.421875 L 13.078125 -18.421875 C 12.578125 -18.421875 12.265625 -18.25 12.265625 -17.609375 L 12.265625 -6.25 C 12.265625 -4.484375 11.09375 -3.46875 9.234375 -3.46875 C 7.390625 -3.46875 6.25 -4.484375 6.25 -6.25 L 6.25 -17.609375 C 6.25 -18.25 5.9375 -18.421875 5.4375 -18.421875 L 2.65625 -18.421875 C 2.15625 -18.421875 1.84375 -18.25 1.84375 -17.609375 L 1.84375 -5.625 C 1.84375 -1.234375 5.90625 0.421875 9.234375 0.421875 C 12.578125 0.421875 16.65625 -1.234375 16.65625 -5.625 L 16.65625 -17.609375 C 16.65625 -18.25 16.359375 -18.421875 15.84375 -18.421875 Z M 15.84375 -18.421875 "/></g></g></g><g fill="#00ffff" fill-opacity="1"><g transform="translate(223.021076, 74.144654)"><g><path d="M 17.171875 -0.890625 L 13.21875 -6.640625 C 14.953125 -7.21875 17.109375 -9.265625 17.109375 -12.203125 C 17.109375 -14 16.515625 -15.59375 15.484375 -16.609375 C 14.3125 -17.78125 12.96875 -18.390625 9.90625 -18.390625 L 2.859375 -18.390625 C 2.21875 -18.390625 2.078125 -18.09375 2.078125 -17.578125 L 2.078125 -0.8125 C 2.078125 -0.171875 2.359375 0 2.859375 0 L 5.625 0 C 6.125 0 6.4375 -0.171875 6.4375 -0.8125 L 6.4375 -14.46875 L 10.15625 -14.46875 C 11.625 -14.46875 12.734375 -13.546875 12.734375 -12.09375 C 12.734375 -10.78125 11.453125 -9.828125 10.078125 -9.828125 L 9.515625 -9.828125 C 8.875 -9.828125 8.703125 -9.515625 8.703125 -9.015625 L 8.703125 -6.78125 C 8.703125 -5.984375 8.765625 -5.6875 9.015625 -5.34375 L 12.046875 -0.84375 C 12.4375 -0.25 12.765625 0 13.4375 0 L 16.75 0 C 17.28125 0 17.421875 -0.5 17.171875 -0.890625 Z M 17.171875 -0.890625 "/></g></g></g><g fill="#00ffff" fill-opacity="1"><g transform="translate(241.666533, 74.144654)"><g><path d="M 16.546875 -5.90625 L 16.546875 -12.515625 C 16.546875 -16.9375 12.34375 -18.84375 9.015625 -18.84375 C 5.6875 -18.84375 1.546875 -16.9375 1.546875 -12.515625 L 1.546875 -5.90625 C 1.546875 -1.484375 5.6875 0.421875 9.015625 0.421875 C 12.34375 0.421875 16.546875 -1.484375 16.546875 -5.90625 Z M 12.15625 -12.125 L 12.15625 -6.296875 C 12.15625 -4.515625 10.859375 -3.46875 9.015625 -3.46875 C 7.203125 -3.46875 5.90625 -4.515625 5.90625 -6.296875 L 5.90625 -12.125 C 5.90625 -13.921875 7.203125 -14.953125 9.015625 -14.953125 C 10.859375 -14.953125 12.15625 -13.921875 12.15625 -12.125 Z M 12.15625 -12.125 "/></g></g></g><g fill="#00ffff" fill-opacity="1"><g transform="translate(259.724073, 74.144654)"><g><path d="M 10.75 -10.703125 C 9.625 -11.140625 5.515625 -11.765625 5.515625 -13.46875 C 5.515625 -14.734375 7.0625 -15.09375 7.984375 -15.09375 C 8.8125 -15.09375 9.828125 -14.84375 10.359375 -14.34375 C 10.703125 -14 10.84375 -13.78125 10.953125 -13.5 C 11.09375 -13.125 11.171875 -12.734375 11.703125 -12.734375 L 14.453125 -12.734375 C 15.09375 -12.734375 15.265625 -12.859375 15.265625 -13.53125 C 15.265625 -17.21875 11.375 -18.84375 7.8125 -18.84375 C 4.3125 -18.703125 1.015625 -16.90625 1.015625 -13.265625 C 1.015625 -9.71875 3.609375 -8.59375 6.4375 -7.703125 C 8.8125 -6.9375 11.3125 -6.921875 11.3125 -5.34375 C 11.3125 -3.78125 10.078125 -3.4375 8.5625 -3.4375 C 7.53125 -3.4375 6.390625 -3.703125 5.828125 -4.375 C 5.453125 -4.78125 5.3125 -5.15625 5.296875 -5.515625 C 5.234375 -6.21875 4.921875 -6.296875 4.28125 -6.296875 L 1.5625 -6.296875 C 0.921875 -6.296875 0.75 -6.15625 0.75 -5.515625 C 0.75 -1.59375 4.78125 0.421875 8.28125 0.421875 C 12.59375 0.421875 15.734375 -1.484375 15.734375 -5.453125 C 15.734375 -9.265625 12.765625 -10.078125 10.75 -10.703125 Z M 10.75 -10.703125 "/></g></g></g><g fill="#ffffff" fill-opacity="1"><g transform="translate(153.64829, 73.45105)"><g><path d="M 14.921875 -18.421875 L 2.890625 -18.421875 C 2.234375 -18.421875 2.078125 -18.109375 2.078125 -17.609375 L 2.078125 -0.8125 C 2.078125 -0.3125 2.234375 0 2.890625 0 L 5.65625 0 C 6.296875 0 6.46875 -0.109375 6.46875 -0.84375 L 6.46875 -7.390625 L 13.75 -7.390625 C 14.390625 -7.390625 14.5625 -7.703125 14.5625 -8.203125 L 14.5625 -10.421875 C 14.5625 -10.921875 14.390625 -11.234375 13.75 -11.234375 L 6.46875 -11.234375 L 6.46875 -14.5 L 14.921875 -14.5 C 15.5625 -14.5 15.734375 -14.8125 15.734375 -15.3125 L 15.734375 -17.609375 C 15.734375 -18.109375 15.5625 -18.421875 14.921875 -18.421875 Z M 14.921875 -18.421875 "/></g></g></g><g fill="#ffffff" fill-opacity="1"><g transform="translate(170.501991, 73.45105)"><g><path d="M 15.84375 -18.421875 L 13.078125 -18.421875 C 12.578125 -18.421875 12.265625 -18.25 12.265625 -17.609375 L 12.265625 -6.25 C 12.265625 -4.484375 11.09375 -3.46875 9.234375 -3.46875 C 7.390625 -3.46875 6.25 -4.484375 6.25 -6.25 L 6.25 -17.609375 C 6.25 -18.25 5.9375 -18.421875 5.4375 -18.421875 L 2.65625 -18.421875 C 2.15625 -18.421875 1.84375 -18.25 1.84375 -17.609375 L 1.84375 -5.625 C 1.84375 -1.234375 5.90625 0.421875 9.234375 0.421875 C 12.578125 0.421875 16.65625 -1.234375 16.65625 -5.625 L 16.65625 -17.609375 C 16.65625 -18.25 16.359375 -18.421875 15.84375 -18.421875 Z M 15.84375 -18.421875 "/></g></g></g><g fill="#ffffff" fill-opacity="1"><g transform="translate(189.007464, 73.45105)"><g><path d="M 14.53125 -18.421875 L 1.546875 -18.421875 C 0.890625 -18.421875 0.734375 -18.109375 0.734375 -17.609375 L 0.734375 -15.28125 C 0.734375 -14.78125 0.890625 -14.46875 1.546875 -14.46875 L 5.859375 -14.46875 L 5.859375 -0.8125 C 5.859375 -0.171875 6.15625 0 6.65625 0 L 9.4375 0 C 9.9375 0 10.25 -0.171875 10.25 -0.8125 L 10.25 -14.46875 L 14.53125 -14.46875 C 15.171875 -14.46875 15.34375 -14.78125 15.34375 -15.28125 L 15.34375 -17.609375 C 15.34375 -18.109375 15.171875 -18.421875 14.53125 -18.421875 Z M 14.53125 -18.421875 "/></g></g></g><g fill="#ffffff" fill-opacity="1"><g transform="translate(205.077268, 73.45105)"><g><path d="M 15.84375 -18.421875 L 13.078125 -18.421875 C 12.578125 -18.421875 12.265625 -18.25 12.265625 -17.609375 L 12.265625 -6.25 C 12.265625 -4.484375 11.09375 -3.46875 9.234375 -3.46875 C 7.390625 -3.46875 6.25 -4.484375 6.25 -6.25 L 6.25 -17.609375 C 6.25 -18.25 5.9375 -18.421875 5.4375 -18.421875 L 2.65625 -18.421875 C 2.15625 -18.421875 1.84375 -18.25 1.84375 -17.609375 L 1.84375 -5.625 C 1.84375 -1.234375 5.90625 0.421875 9.234375 0.421875 C 12.578125 0.421875 16.65625 -1.234375 16.65625 -5.625 L 16.65625 -17.609375 C 16.65625 -18.25 16.359375 -18.421875 15.84375 -18.421875 Z M 15.84375 -18.421875 "/></g></g></g><g fill="#ffffff" fill-opacity="1"><g transform="translate(223.582741, 73.45105)"><g><path d="M 17.171875 -0.890625 L 13.21875 -6.640625 C 14.953125 -7.21875 17.109375 -9.265625 17.109375 -12.203125 C 17.109375 -14 16.515625 -15.59375 15.484375 -16.609375 C 14.3125 -17.78125 12.96875 -18.390625 9.90625 -18.390625 L 2.859375 -18.390625 C 2.21875 -18.390625 2.078125 -18.09375 2.078125 -17.578125 L 2.078125 -0.8125 C 2.078125 -0.171875 2.359375 0 2.859375 0 L 5.625 0 C 6.125 0 6.4375 -0.171875 6.4375 -0.8125 L 6.4375 -14.46875 L 10.15625 -14.46875 C 11.625 -14.46875 12.734375 -13.546875 12.734375 -12.09375 C 12.734375 -10.78125 11.453125 -9.828125 10.078125 -9.828125 L 9.515625 -9.828125 C 8.875 -9.828125 8.703125 -9.515625 8.703125 -9.015625 L 8.703125 -6.78125 C 8.703125 -5.984375 8.765625 -5.6875 9.015625 -5.34375 L 12.046875 -0.84375 C 12.4375 -0.25 12.765625 0 13.4375 0 L 16.75 0 C 17.28125 0 17.421875 -0.5 17.171875 -0.890625 Z M 17.171875 -0.890625 "/></g></g></g><g fill="#ffffff" fill-opacity="1"><g transform="translate(242.228198, 73.45105)"><g><path d="M 16.546875 -5.90625 L 16.546875 -12.515625 C 16.546875 -16.9375 12.34375 -18.84375 9.015625 -18.84375 C 5.6875 -18.84375 1.546875 -16.9375 1.546875 -12.515625 L 1.546875 -5.90625 C 1.546875 -1.484375 5.6875 0.421875 9.015625 0.421875 C 12.34375 0.421875 16.546875 -1.484375 16.546875 -5.90625 Z M 12.15625 -12.125 L 12.15625 -6.296875 C 12.15625 -4.515625 10.859375 -3.46875 9.015625 -3.46875 C 7.203125 -3.46875 5.90625 -4.515625 5.90625 -6.296875 L 5.90625 -12.125 C 5.90625 -13.921875 7.203125 -14.953125 9.015625 -14.953125 C 10.859375 -14.953125 12.15625 -13.921875 12.15625 -12.125 Z M 12.15625 -12.125 "/></g></g></g><g fill="#ffffff" fill-opacity="1"><g transform="translate(260.285738, 73.45105)"><g><path d="M 10.75 -10.703125 C 9.625 -11.140625 5.515625 -11.765625 5.515625 -13.46875 C 5.515625 -14.734375 7.0625 -15.09375 7.984375 -15.09375 C 8.8125 -15.09375 9.828125 -14.84375 10.359375 -14.34375 C 10.703125 -14 10.84375 -13.78125 10.953125 -13.5 C 11.09375 -13.125 11.171875 -12.734375 11.703125 -12.734375 L 14.453125 -12.734375 C 15.09375 -12.734375 15.265625 -12.859375 15.265625 -13.53125 C 15.265625 -17.21875 11.375 -18.84375 7.8125 -18.84375 C 4.3125 -18.703125 1.015625 -16.90625 1.015625 -13.265625 C 1.015625 -9.71875 3.609375 -8.59375 6.4375 -7.703125 C 8.8125 -6.9375 11.3125 -6.921875 11.3125 -5.34375 C 11.3125 -3.78125 10.078125 -3.4375 8.5625 -3.4375 C 7.53125 -3.4375 6.390625 -3.703125 5.828125 -4.375 C 5.453125 -4.78125 5.3125 -5.15625 5.296875 -5.515625 C 5.234375 -6.21875 4.921875 -6.296875 4.28125 -6.296875 L 1.5625 -6.296875 C 0.921875 -6.296875 0.75 -6.15625 0.75 -5.515625 C 0.75 -1.59375 4.78125 0.421875 8.28125 0.421875 C 12.59375 0.421875 15.734375 -1.484375 15.734375 -5.453125 C 15.734375 -9.265625 12.765625 -10.078125 10.75 -10.703125 Z M 10.75 -10.703125 "/></g></g></g></svg>